<svg xmlns="http://www.w3.org/2000/svg" width="120" height="35" viewBox="0 0 120 35">
  <defs>
    <linearGradient id="button-bg" x2="0" y2="1">
      <stop stop-color="#172126"/>
      <stop stop-color="#172126" offset="1"/>
    </linearGradient>
    <filter id="drop-shadow" color-interpolation-filters="sRGB" x="-0.5" y="-0.5" width="2" height="2">
      <feGaussianBlur in="SourceAlpha" stdDeviation="1"/>
      <feOffset dx="0" dy="0.5" result="offsetblur"/>
      <feFlood flood-color="#000000" flood-opacity="0.12"/>
      <feComposite in2="offsetblur" operator="in"/>
      <feMerge>
        <feMergeNode/>
        <feMergeNode in="SourceGraphic"/>
      </feMerge>
    </filter>
  </defs>
  <rect width="120" height="35" fill="#172126"/>
  <g transform="translate(2, 2)" id="button">
    <rect x="0" y="0" width="51" height="25" ry="2" fill="url(#button-bg)" filter="url(#drop-shadow)"/>
    <rect x="0.5" y="0.5" width="50" height="24" ry="1.5" fill="none" stroke="#f5e9c8" stroke-opacity="0.3" stroke-width="1"/>
    <text x="25" y="17" text-anchor="middle" font-family="sans-serif" font-size="9.75pt" fill="#f5e9c8">Button</text>
  </g>
  <g transform="translate(60, 6)" id="check">
    <rect x="0.5" y="0.5" width="15" height="15" ry="1.5" fill="none" stroke="#f5e9c8" stroke-opacity="0.3"/>
    <rect x="1" y="1" width="14" height="14" ry="1" fill="#172126"/>
    <path d="M11.681 3.928a1.467 1.467 0 0 0-.987.427L6.653 8.2 5.27 6.65c-.494-.659-1.574-.729-2.146-.142-.572.588-.494 1.692.156 2.186l2.39 2.569c.94.94 1.362.814 2.31-.138 0 0 3.258-3.92 5.169-5.243.423-.4.599-.513.376-1.054-.22-.544-1.27-.92-1.845-.9z" fill="#febba2"/>
  </g>
  <g transform="translate(86, 6)" id="radio">
    <circle cx="8" cy="8" r="7.5" fill="none" stroke="#f5e9c8" stroke-opacity="0.3"/>
    <circle cx="8" cy="8" r="7" fill="#172126"/>
    <circle cx="8" cy="8" r="3" fill="#febba2"/>
  </g>
</svg>
